HIERARCHY
ROOT Hips
{
	OFFSET 0.053599 88.859886 3.107447
	CHANNELS 6 Xposition Yposition Zposition Zrotation Yrotation Xrotation 
	JOINT Spine
	{
		OFFSET -0.000000 8.814246 -2.080107
		CHANNELS 3 Zrotation Yrotation Xrotation
		JOINT Spine1
		{
			OFFSET 0.000000 8.844141 0.000000
			CHANNELS 3 Zrotation Yrotation Xrotation
			JOINT Spine2
			{
				OFFSET -0.000000 11.682268 0.000000
				CHANNELS 3 Zrotation Yrotation Xrotation
				JOINT Spine3
				{
					OFFSET 0.000000 11.746700 0.000000
					CHANNELS 3 Zrotation Yrotation Xrotation
					JOINT Neck
					{
						OFFSET -0.000000 17.658264 -0.000000
						CHANNELS 3 Zrotation Yrotation Xrotation
						JOINT Neck1
						{
							OFFSET -0.000000 5.101515 -0.000000
							CHANNELS 3 Zrotation Yrotation Xrotation
							JOINT Head
							{
								OFFSET 0.000000 5.101515 0.000000
								CHANNELS 3 Zrotation Yrotation Xrotation
								JOINT HeadEnd
								{
									OFFSET 0.000000 11.655085 0.000000
									CHANNELS 3 Zrotation Yrotation Xrotation
									End Site
									{
										OFFSET 0.000000 0.000000 0.000000
									}
								}
							}
						}
					}
					JOINT RightShoulder
					{
						OFFSET -2.625389 11.175210 0.000000
						CHANNELS 3 Zrotation Yrotation Xrotation
						JOINT RightArm
						{
							OFFSET -0.000000 10.434715 -0.000000
							CHANNELS 3 Zrotation Yrotation Xrotation
							JOINT RightForeArm
							{
								OFFSET -0.000000 29.628420 0.000000
								CHANNELS 3 Zrotation Yrotation Xrotation
								JOINT RightHand
								{
									OFFSET -0.000000 22.857611 0.000000
									CHANNELS 3 Zrotation Yrotation Xrotation
									JOINT RightHandThumb1
									{
										OFFSET -2.867323 3.959563 2.944291
										CHANNELS 3 Zrotation Yrotation Xrotation
										JOINT RightHandThumb2
										{
											OFFSET 0.000000 3.350399 0.000000
											CHANNELS 3 Zrotation Yrotation Xrotation
											JOINT RightHandThumb3
											{
												OFFSET 0.000000 3.756509 -0.000000
												CHANNELS 3 Zrotation Yrotation Xrotation
												JOINT RightHandThumb4
												{
													OFFSET 0.000000 3.147345 0.000000
													CHANNELS 3 Zrotation Yrotation Xrotation
													End Site
													{
														OFFSET 0.000000 0.000000 0.000000
													}
												}
											}
										}
									}
									JOINT RightHandIndex1
									{
										OFFSET -0.086752 10.030893 2.345280
										CHANNELS 3 Zrotation Yrotation Xrotation
										JOINT RightHandIndex2
										{
											OFFSET -0.000000 4.061090 0.000000
											CHANNELS 3 Zrotation Yrotation Xrotation
											JOINT RightHandIndex3
											{
												OFFSET -0.000000 3.248873 0.000000
												CHANNELS 3 Zrotation Yrotation Xrotation
												JOINT RightHandIndex4
												{
													OFFSET 0.000000 2.639709 -0.000000
													CHANNELS 3 Zrotation Yrotation Xrotation
													End Site
													{
														OFFSET 0.000000 0.000000 0.000000
													}
												}
											}
										}
									}
									JOINT RightHandMiddle1
									{
										OFFSET 0.104102 9.502952 0.006768
										CHANNELS 3 Zrotation Yrotation Xrotation
										JOINT RightHandMiddle2
										{
											OFFSET 0.000000 4.568727 0.000000
											CHANNELS 3 Zrotation Yrotation Xrotation
											JOINT RightHandMiddle3
											{
												OFFSET 0.000000 3.654981 -0.000000
												CHANNELS 3 Zrotation Yrotation Xrotation
												JOINT RightHandMiddle4
												{
													OFFSET -0.000000 2.741236 -0.000000
													CHANNELS 3 Zrotation Yrotation Xrotation
													End Site
													{
														OFFSET 0.000000 0.000000 0.000000
													}
												}
											}
										}
									}
									JOINT RightHandRing1
									{
										OFFSET 0.086752 8.921708 -2.267442
										CHANNELS 3 Zrotation Yrotation Xrotation
										JOINT RightHandRing2
										{
											OFFSET -0.000000 4.061090 0.000000
											CHANNELS 3 Zrotation Yrotation Xrotation
											JOINT RightHandRing3
											{
												OFFSET 0.000000 3.654981 -0.000000
												CHANNELS 3 Zrotation Yrotation Xrotation
												JOINT RightHandRing4
												{
													OFFSET 0.000000 2.741236 -0.000000
													CHANNELS 3 Zrotation Yrotation Xrotation
													End Site
													{
														OFFSET 0.000000 0.000000 0.000000
													}
												}
											}
										}
									}
									JOINT RightHandPinky1
									{
										OFFSET -0.173504 7.976997 -4.467199
										CHANNELS 3 Zrotation Yrotation Xrotation
										JOINT RightHandPinky2
										{
											OFFSET 0.000000 3.350399 -0.000000
											CHANNELS 3 Zrotation Yrotation Xrotation
											JOINT RightHandPinky3
											{
												OFFSET -0.000000 2.842763 0.000000
												CHANNELS 3 Zrotation Yrotation Xrotation
												JOINT RightHandPinky4
												{
													OFFSET -0.000000 2.639709 0.000000
													CHANNELS 3 Zrotation Yrotation Xrotation
													End Site
													{
														OFFSET 0.000000 0.000000 0.000000
													}
												}
											}
										}
									}
									JOINT RightForeArmEnd
									{
										OFFSET 0.000000 0.000000 0.000000
										CHANNELS 3 Zrotation Yrotation Xrotation
										End Site
										{
											OFFSET 0.000000 0.000000 0.000000
										}
									}
								}
								JOINT RightArmEnd
								{
									OFFSET 0.000000 0.000000 0.000000
									CHANNELS 3 Zrotation Yrotation Xrotation
									End Site
									{
										OFFSET 0.000000 0.000000 0.000000
									}
								}
							}
						}
					}
					JOINT LeftShoulder
					{
						OFFSET 2.625389 11.175210 0.000000
						CHANNELS 3 Zrotation Yrotation Xrotation
						JOINT LeftArm
						{
							OFFSET 0.000000 10.813635 -0.000000
							CHANNELS 3 Zrotation Yrotation Xrotation
							JOINT LeftForeArm
							{
								OFFSET 0.000000 28.724781 0.000000
								CHANNELS 3 Zrotation Yrotation Xrotation
								JOINT LeftHand
								{
									OFFSET 0.644384 25.716167 -0.328871
									CHANNELS 3 Zrotation Yrotation Xrotation
									JOINT LeftHandThumb1
									{
										OFFSET 2.867323 3.959563 2.944291
										CHANNELS 3 Zrotation Yrotation Xrotation
										JOINT LeftHandThumb2
										{
											OFFSET 0.000000 3.350399 0.000000
											CHANNELS 3 Zrotation Yrotation Xrotation
											JOINT LeftHandThumb3
											{
												OFFSET -0.000000 3.756509 0.000000
												CHANNELS 3 Zrotation Yrotation Xrotation
												JOINT LeftHandThumb4
												{
													OFFSET -0.000000 3.100000 0.000000
													CHANNELS 3 Zrotation Yrotation Xrotation
													End Site
													{
														OFFSET 0.000000 0.000000 0.000000
													}
												}
											}
										}
									}
									JOINT LeftHandIndex1
									{
										OFFSET 0.086752 10.030893 2.345280
										CHANNELS 3 Zrotation Yrotation Xrotation
										JOINT LeftHandIndex2
										{
											OFFSET -0.000000 4.061090 -0.000000
											CHANNELS 3 Zrotation Yrotation Xrotation
											JOINT LeftHandIndex3
											{
												OFFSET 0.000000 3.248873 -0.000000
												CHANNELS 3 Zrotation Yrotation Xrotation
												JOINT LeftHandIndex4
												{
													OFFSET 0.000000 2.639709 -0.000000
													CHANNELS 3 Zrotation Yrotation Xrotation
													End Site
													{
														OFFSET 0.000000 0.000000 0.000000
													}
												}
											}
										}
									}
									JOINT LeftHandMiddle1
									{
										OFFSET -0.104102 9.502952 0.006768
										CHANNELS 3 Zrotation Yrotation Xrotation
										JOINT LeftHandMiddle2
										{
											OFFSET -0.000000 4.568727 -0.000000
											CHANNELS 3 Zrotation Yrotation Xrotation
											JOINT LeftHandMiddle3
											{
												OFFSET 0.000000 3.654981 0.000000
												CHANNELS 3 Zrotation Yrotation Xrotation
												JOINT LeftHandMiddle4
												{
													OFFSET 0.000000 2.741236 -0.000000
													CHANNELS 3 Zrotation Yrotation Xrotation
													End Site
													{
														OFFSET 0.000000 0.000000 0.000000
													}
												}
											}
										}
									}
									JOINT LeftHandRing1
									{
										OFFSET -0.086752 8.921708 -2.267442
										CHANNELS 3 Zrotation Yrotation Xrotation
										JOINT LeftHandRing2
										{
											OFFSET 0.000000 4.061090 0.000000
											CHANNELS 3 Zrotation Yrotation Xrotation
											JOINT LeftHandRing3
											{
												OFFSET 0.000000 3.654981 0.000000
												CHANNELS 3 Zrotation Yrotation Xrotation
												JOINT LeftHandRing4
												{
													OFFSET 0.000000 2.741236 0.000000
													CHANNELS 3 Zrotation Yrotation Xrotation
													End Site
													{
														OFFSET 0.000000 0.000000 0.000000
													}
												}
											}
										}
									}
									JOINT LeftHandPinky1
									{
										OFFSET 0.173504 7.976997 -4.467199
										CHANNELS 3 Zrotation Yrotation Xrotation
										JOINT LeftHandPinky2
										{
											OFFSET -0.000000 3.350399 -0.000000
											CHANNELS 3 Zrotation Yrotation Xrotation
											JOINT LeftHandPinky3
											{
												OFFSET 0.000000 2.842763 0.000000
												CHANNELS 3 Zrotation Yrotation Xrotation
												JOINT LeftHandPinky4
												{
													OFFSET -0.000000 2.639709 -0.000000
													CHANNELS 3 Zrotation Yrotation Xrotation
													End Site
													{
														OFFSET 0.000000 0.000000 0.000000
													}
												}
											}
										}
									}
									JOINT LeftForeArmEnd
									{
										OFFSET 0.000000 0.000000 0.000000
										CHANNELS 3 Zrotation Yrotation Xrotation
										End Site
										{
											OFFSET 0.000000 0.000000 0.000000
										}
									}
								}
								JOINT LeftArmEnd
								{
									OFFSET 0.000000 0.000000 0.000000
									CHANNELS 3 Zrotation Yrotation Xrotation
									End Site
									{
										OFFSET 0.000000 0.000000 0.000000
									}
								}
							}
						}
					}
				}
			}
		}
	}
	JOINT RightUpLeg
	{
		OFFSET -11.289943 0.000000 0.000000
		CHANNELS 3 Zrotation Yrotation Xrotation
		JOINT RightLeg
		{
			OFFSET 0.000000 -38.200325 0.000000
			CHANNELS 3 Zrotation Yrotation Xrotation
			JOINT RightFoot
			{
				OFFSET -0.000000 -39.900856 -0.000000
				CHANNELS 3 Zrotation Yrotation Xrotation
				JOINT RightToeBase
				{
					OFFSET 0.000000 0.000000 15.261641
					CHANNELS 3 Zrotation Yrotation Xrotation
					JOINT RightToeBaseEnd
					{
						OFFSET 0.000000 0.000000 7.370709
						CHANNELS 3 Zrotation Yrotation Xrotation
						End Site
						{
							OFFSET 0.000000 0.000000 0.000000
						}
					}
				}
				JOINT RightLegEnd
				{
					OFFSET 0.000000 0.000000 0.000000
					CHANNELS 3 Zrotation Yrotation Xrotation
					End Site
					{
						OFFSET 0.000000 0.000000 0.000000
					}
				}
			}
			JOINT RightUpLegEnd
			{
				OFFSET 0.000000 0.000000 0.000000
				CHANNELS 3 Zrotation Yrotation Xrotation
				End Site
				{
					OFFSET 0.000000 0.000000 0.000000
				}
			}
		}
	}
	JOINT LeftUpLeg
	{
		OFFSET 11.315661 -0.000000 0.000000
		CHANNELS 3 Zrotation Yrotation Xrotation
		JOINT LeftLeg
		{
			OFFSET -0.000000 -38.200325 -0.000000
			CHANNELS 3 Zrotation Yrotation Xrotation
			JOINT LeftFoot
			{
				OFFSET 0.000000 -39.900856 -0.000000
				CHANNELS 3 Zrotation Yrotation Xrotation
				JOINT LeftToeBase
				{
					OFFSET -0.000000 -0.000000 15.261641
					CHANNELS 3 Zrotation Yrotation Xrotation
					JOINT LeftToeBaseEnd
					{
						OFFSET 0.000000 -0.000000 7.539996
						CHANNELS 3 Zrotation Yrotation Xrotation
						End Site
						{
							OFFSET 0.000000 0.000000 0.000000
						}
					}
				}
				JOINT LeftLegEnd
				{
					OFFSET 0.000000 0.000000 0.000000
					CHANNELS 3 Zrotation Yrotation Xrotation
					End Site
					{
						OFFSET 0.000000 0.000000 0.000000
					}
				}
			}
			JOINT LeftUpLegEnd
			{
				OFFSET 0.000000 0.000000 0.000000
				CHANNELS 3 Zrotation Yrotation Xrotation
				End Site
				{
					OFFSET 0.000000 0.000000 0.000000
				}
			}
		}
	}
}
MOTION
Frames: 4
Frame Time: 0.016667
0.094963 88.729568 3.198039 -0.244077 -1.803874 -11.050766 0.944432 0.177661 7.074555 -0.914618 0.244643 2.877471 0.300115 -0.487695 4.837081 -1.359797 0.345019 5.157647 1.192638 0.115256 3.473389 0.457654 0.108442 -3.941256 -0.289620 -1.104238 -19.394615 0.000000 0.000000 0.000000 91.083321 -0.125565 9.823302 67.975861 -21.974281 0.819078 -0.313638 21.429068 54.308834 -2.427701 17.560717 -2.878444 20.893162 29.879389 61.166744 -9.331051 -14.274710 -23.531254 -7.048006 -9.311557 -16.305838 0.000000 0.000000 0.000000 20.799131 -12.422215 1.985648 14.976056 -0.055512 2.499029 14.760480 -0.481492 2.407548 0.000000 0.000000 0.000000 20.179941 -6.886031 1.322365 13.785967 0.291517 0.969173 14.522034 -0.183333 0.844662 0.000000 0.000000 0.000000 22.090969 0.740076 1.091430 15.580317 -0.651047 -1.422992 15.566586 0.253537 -1.053071 0.000000 0.000000 0.000000 21.798914 9.389542 0.091866 15.767870 -1.033917 -3.954267 15.624208 0.791853 -3.265426 0.000000 0.000000 0.000000 0.000000 0.000000 0.000000 0.000000 0.000000 0.000000 -87.769791 0.374189 4.128905 -72.698082 8.268601 -9.824072 -0.665063 -18.721325 68.489624 5.313813 -17.999249 -10.600704 -24.885273 -29.274340 57.949089 11.332096 22.057777 -34.279472 9.346589 14.708339 -24.031891 0.000000 0.000000 0.000000 -49.123348 -1.476798 -3.848540 -33.635807 -0.471811 -3.091067 -33.590939 -0.963683 -2.903485 0.000000 0.000000 0.000000 -49.343903 4.004719 -2.427822 -33.930492 0.049662 -1.361458 -34.061859 -0.387467 -1.123948 0.000000 0.000000 0.000000 -54.625824 12.468531 -0.759791 -37.690365 -0.304643 1.955340 -37.758469 0.512801 1.515195 0.000000 0.000000 0.000000 -56.078156 20.698086 0.670409 -38.636528 0.054064 5.969839 -38.254349 1.758408 5.032667 0.000000 0.000000 0.000000 0.000000 0.000000 0.000000 0.000000 0.000000 0.000000 -0.778121 -9.148002 15.364460 -0.072912 -0.673180 4.957473 -2.776602 -7.759510 17.206358 -0.897332 0.878522 -18.487707 0.000000 0.000000 0.000000 0.000000 0.000000 0.000000 0.000000 0.000000 0.000000 -1.452257 -6.133061 9.464708 0.058556 0.282509 10.590041 3.875109 -0.953044 16.243597 0.241991 -0.381273 -20.666878 0.000000 0.000000 0.000000 0.000000 0.000000 0.000000 0.000000 0.000000 0.000000 
0.095746 88.717484 3.221177 -0.255544 -1.847715 -11.073539 0.965784 0.174312 7.099269 -0.886160 0.232604 2.849424 0.284022 -0.461713 4.857133 -1.369211 0.348541 5.124288 1.017395 0.199175 3.456891 0.449309 0.136593 -3.956149 -0.317860 -1.113723 -19.376217 0.000000 0.000000 0.000000 91.035553 -0.081463 9.867806 67.966904 -21.906961 0.985474 -0.327683 21.520729 54.311005 -1.884293 17.074734 -3.006433 20.901770 29.869873 61.148216 -9.359224 -14.305757 -23.578766 -7.066294 -9.325755 -16.336044 0.000000 0.000000 0.000000 21.068901 -12.448487 1.877396 15.131709 -0.071274 2.532518 14.919854 -0.495909 2.439362 0.000000 0.000000 0.000000 20.431536 -6.927971 1.227953 13.950607 0.283459 0.982375 14.677654 -0.189291 0.855928 0.000000 0.000000 0.000000 22.358301 0.676741 1.038748 15.767129 -0.640293 -1.445041 15.750619 0.260213 -1.070619 0.000000 0.000000 0.000000 22.027748 9.320682 0.099561 15.937344 -1.003986 -4.024460 15.799712 0.814398 -3.321159 0.000000 0.000000 0.000000 0.000000 0.000000 0.000000 0.000000 0.000000 0.000000 -87.755173 0.374770 4.137189 -72.752136 8.140768 -9.838614 -0.682449 -18.878689 68.134727 5.106328 -17.218136 -10.957648 -24.847450 -29.273670 57.966377 11.337973 21.995436 -34.189465 9.334504 14.663661 -23.974644 0.000000 0.000000 0.000000 -48.951416 -1.472665 -3.838699 -33.517612 -0.481520 -3.128902 -33.480789 -0.972420 -2.933816 0.000000 0.000000 0.000000 -49.152897 3.992596 -2.424248 -33.794167 0.045477 -1.375400 -33.933426 -0.389849 -1.135285 0.000000 0.000000 0.000000 -54.368393 12.447121 -0.737413 -37.521336 -0.299039 1.970944 -37.588818 0.516177 1.526788 0.000000 0.000000 0.000000 -55.747482 20.688267 0.697234 -38.425808 0.068780 6.018394 -38.038292 1.770380 5.069385 0.000000 0.000000 0.000000 0.000000 0.000000 0.000000 0.000000 0.000000 0.000000 -0.772317 -9.217303 15.406227 -0.072151 -0.673040 4.945589 -2.812503 -7.707172 17.172153 -0.897675 0.879229 -18.471296 0.000000 0.000000 0.000000 0.000000 0.000000 0.000000 0.000000 0.000000 0.000000 -1.408329 -6.148883 9.490968 0.059861 0.285380 10.625475 3.860457 -1.004769 16.195589 0.238044 -0.384255 -20.656794 0.000000 0.000000 0.000000 0.000000 0.000000 0.000000 0.000000 0.000000 0.000000 
0.096934 88.704155 3.246603 -0.265060 -1.892442 -11.106316 0.988888 0.170561 7.135969 -0.859363 0.221383 2.814584 0.267252 -0.434941 4.889284 -1.380170 0.354199 5.086495 0.856602 0.274428 3.467400 0.445349 0.166231 -3.951578 -0.343892 -1.123013 -19.369743 0.000000 0.000000 0.000000 91.002205 -0.036418 9.924189 67.937172 -21.879229 1.186058 -0.336741 21.570179 54.170052 -1.468704 16.529745 -3.149282 20.885626 29.865421 61.150501 -9.369920 -14.288168 -23.556429 -7.068212 -9.308621 -16.317703 0.000000 0.000000 0.000000 21.124468 -12.436831 1.828370 15.143952 -0.080940 2.547001 14.936407 -0.504293 2.453564 0.000000 0.000000 0.000000 20.478867 -6.934107 1.170560 13.977347 0.277814 0.987955 14.692769 -0.193240 0.860705 0.000000 0.000000 0.000000 22.431684 0.644972 1.005154 15.820341 -0.632698 -1.456323 15.800900 0.264275 -1.079972 0.000000 0.000000 0.000000 22.083019 9.276134 0.103127 15.990933 -0.982948 -4.064504 15.856566 0.828921 -3.352468 0.000000 0.000000 0.000000 0.000000 0.000000 0.000000 0.000000 0.000000 0.000000 -87.779541 0.377513 4.145450 -72.768562 8.039242 -9.823160 -0.692547 -18.983534 67.757996 4.854508 -16.468269 -11.314751 -24.779030 -29.276648 58.005913 11.332939 21.873846 -34.019215 9.307715 14.579297 -23.860405 0.000000 0.000000 0.000000 -48.574383 -1.490703 -3.800563 -33.256981 -0.481490 -3.142787 -33.227123 -0.971456 -2.941577 0.000000 0.000000 0.000000 -48.761185 3.958608 -2.417309 -33.516171 0.045766 -1.379506 -33.663639 -0.388565 -1.138231 0.000000 0.000000 0.000000 -53.930233 12.403006 -0.740401 -37.215729 -0.299675 1.974607 -37.281071 0.515028 1.529349 0.000000 0.000000 0.000000 -55.264473 20.651102 0.663890 -38.095486 0.067237 6.035206 -37.701645 1.768060 5.079590 0.000000 0.000000 0.000000 0.000000 0.000000 0.000000 0.000000 0.000000 0.000000 -0.769767 -9.289566 15.455201 -0.071466 -0.673497 4.934573 -2.845696 -7.645522 17.131273 -0.897601 0.881697 -18.451504 0.000000 0.000000 0.000000 0.000000 0.000000 0.000000 0.000000 0.000000 0.000000 -1.365201 -6.166740 9.525565 0.060828 0.287637 10.661445 3.848589 -1.052047 16.144438 0.234192 -0.386417 -20.642778 0.000000 0.000000 0.000000 0.000000 0.000000 0.000000 0.000000 0.000000 0.000000 
0.097964 88.690178 3.273218 -0.272905 -1.935719 -11.145940 1.011845 0.167247 7.178971 -0.832173 0.211213 2.777372 0.243880 -0.403177 4.934343 -1.392437 0.361999 5.047156 0.719164 0.331274 3.498264 0.446090 0.187942 -3.933040 -0.364319 -1.132231 -19.372402 0.000000 0.000000 0.000000 90.982712 0.006229 9.991355 67.892906 -21.890829 1.425543 -0.342306 21.589005 53.877247 -1.127178 15.946772 -3.343816 20.851713 29.864204 61.167091 -9.369101 -14.236650 -23.484945 -7.059082 -9.269643 -16.265568 0.000000 0.000000 0.000000 21.019682 -12.396672 1.795124 15.041481 -0.084339 2.543249 14.838756 -0.506566 2.450937 0.000000 0.000000 0.000000 20.373381 -6.913412 1.117822 13.890250 0.274735 0.986178 14.592922 -0.195089 0.859325 0.000000 0.000000 0.000000 22.357996 0.636489 0.966925 15.758473 -0.628689 -1.457501 15.736149 0.265576 -1.081548 0.000000 0.000000 0.000000 22.011513 9.246904 0.085697 15.942698 -0.972188 -4.075559 15.809642 0.834694 -3.360422 0.000000 0.000000 0.000000 0.000000 0.000000 0.000000 0.000000 0.000000 0.000000 -87.831169 0.380876 4.157296 -72.747032 7.968849 -9.762886 -0.693166 -19.027096 67.369141 4.556592 -15.731072 -11.673637 -24.678661 -29.284174 58.070011 11.313829 21.690205 -33.764160 9.264121 14.453831 -23.686075 0.000000 0.000000 0.000000 -47.997353 -1.532708 -3.733037 -32.864746 -0.471266 -3.131198 -32.840328 -0.960351 -2.925859 0.000000 0.000000 0.000000 -48.172249 3.901668 -2.401804 -33.105640 0.050701 -1.373164 -33.261318 -0.383469 -1.132299 0.000000 0.000000 0.000000 -53.312088 12.336711 -0.759590 -36.779503 -0.307025 1.965283 -36.841469 0.509121 1.522148 0.000000 0.000000 0.000000 -54.627510 20.589571 0.581221 -37.647434 0.047828 6.016163 -37.246387 1.750571 5.060687 0.000000 0.000000 0.000000 0.000000 0.000000 0.000000 0.000000 0.000000 0.000000 -0.770875 -9.360591 15.509586 -0.070827 -0.674176 4.924580 -2.875424 -7.577459 17.085846 -0.896972 0.885239 -18.429247 0.000000 0.000000 0.000000 0.000000 0.000000 0.000000 0.000000 0.000000 0.000000 -1.324007 -6.186664 9.565186 0.061634 0.289385 10.698293 3.840675 -1.095596 16.094351 0.230982 -0.387744 -20.626305 0.000000 0.000000 0.000000 0.000000 0.000000 0.000000 0.000000 0.000000 0.000000 
